<?xml version="1.0" encoding="utf-8"?>
<!-- Generator: Adobe Illustrator 27.3.1, SVG Export Plug-In . SVG Version: 6.00 Build 0)  -->
<svg version="1.1" id="calendar" xmlns="http://www.w3.org/2000/svg" xmlns:xlink="http://www.w3.org/1999/xlink" x="0px" y="0px"
	 viewBox="0 0 64 64" style="enable-background:new 0 0 64 64;" xml:space="preserve">
<style type="text/css">
	.st0{fill:none;stroke:#FFFFFF;stroke-width:4;stroke-miterlimit:10;}
</style>
<rect x="2" y="9" class="st0" width="60" height="52"/>
<line class="st0" x1="2" y1="21.1" x2="62" y2="21.1"/>
<line class="st0" x1="24" y1="29" x2="28" y2="29"/>
<line class="st0" x1="36" y1="29" x2="40" y2="29"/>
<line class="st0" x1="48" y1="29" x2="52" y2="29"/>
<line class="st0" x1="48" y1="37" x2="52" y2="37"/>
<line class="st0" x1="36" y1="37" x2="40" y2="37"/>
<line class="st0" x1="24" y1="37" x2="28" y2="37"/>
<line class="st0" x1="12" y1="37" x2="16" y2="37"/>
<line class="st0" x1="12" y1="45" x2="16" y2="45"/>
<line class="st0" x1="24" y1="45" x2="28" y2="45"/>
<line class="st0" x1="36" y1="45" x2="40" y2="45"/>
<line class="st0" x1="48" y1="45" x2="52" y2="45"/>
<line class="st0" x1="12" y1="53" x2="16" y2="53"/>
<line class="st0" x1="24" y1="53" x2="28" y2="53"/>
<line class="st0" x1="36" y1="53" x2="40" y2="53"/>
<line class="st0" x1="14" y1="3" x2="14" y2="15"/>
<line class="st0" x1="50" y1="3" x2="50" y2="15"/>
</svg>
