<svg xmlns="http://www.w3.org/2000/svg" width="43" height="48" viewBox="0 0 43 48">
  <path id="Icon_simple-discord" data-name="Icon simple-discord" d="M39.579,0a5.24,5.24,0,0,1,5.176,4.95V48L39.44,43.454l-2.918-2.676-3.184-2.8,1.33,4.41H6.8A4.944,4.944,0,0,1,1.755,37.44V4.96A5.044,5.044,0,0,1,6.808.006H39.565ZM27.433,11.366h-.06l-.4.4a15.957,15.957,0,0,1,6.107,3.074,21.479,21.479,0,0,0-7.433-2.274,20.262,20.262,0,0,0-4.914,0h-.4a17.6,17.6,0,0,0-5.579,1.47c-.927.406-1.459.672-1.459.672a14.131,14.131,0,0,1,6.373-3.074l-.268-.27a11.869,11.869,0,0,0-6.9,2.54,31.475,31.475,0,0,0-3.583,14.04s1.985,3.48,7.431,3.612c0,0,.794-1.066,1.6-2A7.859,7.859,0,0,1,13.7,26.744a6.574,6.574,0,0,1,.665.4h.119a.158.158,0,0,1,.119.06v.012a.152.152,0,0,0,.119.06c.655.272,1.31.54,1.846.8a16.153,16.153,0,0,0,3.574,1.072,20.244,20.244,0,0,0,6.373,0,18.246,18.246,0,0,0,3.574-1.07A28.566,28.566,0,0,0,32.859,26.6a7.891,7.891,0,0,1-4.378,2.808c.655.932,1.578,2,1.578,2a10.339,10.339,0,0,0,7.683-3.452,31.409,31.409,0,0,0-3.6-14.04,11.881,11.881,0,0,0-6.82-2.52l.111-.04Zm.334,8.826a2.684,2.684,0,1,0,0,.006Zm-9.019,0a11.033,11.033,0,1,1-.008.006Z" transform="translate(-1.755)" fill="#fff"/>
</svg>
