<?xml version="1.0" encoding="utf-8"?>
<!-- Generator: Adobe Illustrator 27.4.0, SVG Export Plug-In . SVG Version: 6.00 Build 0)  -->
<svg version="1.1" id="Calque_1" xmlns="http://www.w3.org/2000/svg" xmlns:xlink="http://www.w3.org/1999/xlink" x="0px" y="0px"
	 viewBox="0 0 800 800" style="enable-background:new 0 0 800 800;" xml:space="preserve">
<style type="text/css">
	.st0{fill:#8E0089;}
</style>
<path class="st0" d="M670.2,149.7c-50.4-23.4-104.2-40.6-160.8-50.4c-7,12.3-15.1,29.2-20.5,42.7c-59.9-9-119.3-9-178,0
	c-5.8-13.5-13.9-30.4-20.9-42.7c-56.6,9.8-110.3,27.1-160.8,50.4C27.5,303.1,0.1,452.8,13.6,599.9c67.7,50.4,132.9,80.8,197.2,100.9
	c16-21.8,29.9-45.1,42.2-69.3c-23.4-8.6-45.5-19.7-66.4-32.4c5.8-4.1,11.1-8.6,16.4-12.7c128.3,59.9,267.3,59.9,394,0
	c5.3,4.6,10.7,8.6,16.4,12.7c-20.9,12.7-43.4,23.4-66.4,32.4c12.3,24.2,26.2,47.6,42.2,69.3c64.3-20.1,130-50.4,197.2-100.9
	c16-171-27.4-319-115.6-450.2L670.2,149.7L670.2,149.7z M270.4,509.7c-38.5,0-70.1-35.7-70.1-79.6s30.8-79.6,70.1-79.6
	s70.5,35.7,70.1,79.6C340.5,473.7,309.7,509.7,270.4,509.7z M529.1,509.7c-38.5,0-70.1-35.7-70.1-79.6s30.8-79.6,70.1-79.6
	s70.5,35.7,70.1,79.6C599.2,473.7,568.4,509.7,529.1,509.7z"/>
</svg>
