<?xml version="1.0" encoding="utf-8"?>
<!-- Generator: Adobe Illustrator 27.4.0, SVG Export Plug-In . SVG Version: 6.00 Build 0)  -->
<svg version="1.1" id="Calque_1" xmlns="http://www.w3.org/2000/svg" xmlns:xlink="http://www.w3.org/1999/xlink" x="0px" y="0px"
	 viewBox="0 0 48 48" style="enable-background:new 0 0 48 48;" xml:space="preserve">
<style type="text/css">
	.st0{fill:#8E0089;}
</style>
<path id="Icon_awesome-instagram" class="st0" d="M24,11.7c-6.8,0-12.3,5.5-12.3,12.3S17.2,36.3,24,36.3c6.8,0,12.3-5.5,12.3-12.3
	c0,0,0,0,0,0C36.3,17.2,30.8,11.7,24,11.7C24,11.7,24,11.7,24,11.7z M24,32c-4.4,0-8-3.6-8-8s3.6-8,8-8s8,3.6,8,8
	C32,28.4,28.4,32,24,32L24,32z M39.7,11.2c0,1.6-1.3,2.9-2.9,2.9s-2.9-1.3-2.9-2.9s1.3-2.9,2.9-2.9l0,0C38.4,8.3,39.7,9.6,39.7,11.2
	C39.7,11.2,39.7,11.2,39.7,11.2z M47.8,14.1C47.6,10.3,46.8,6.9,44,4s-6.2-3.7-10.1-3.9c-4-0.2-15.8-0.2-19.8,0
	C10.3,0.3,6.9,1.2,4,4s-3.7,6.2-3.9,10.1c-0.2,4-0.2,15.8,0,19.8c0.2,3.8,1.1,7.3,3.9,10.1s6.2,3.7,10.1,3.9c4,0.2,15.8,0.2,19.8,0
	c3.8-0.2,7.2-1.1,10.1-3.9s3.7-6.2,3.9-10.1C48.1,29.9,48.1,18.1,47.8,14.1L47.8,14.1z M42.7,38.1c-0.8,2.1-2.5,3.7-4.6,4.6
	c-3.2,1.3-10.7,1-14.1,1s-11,0.3-14.1-1c-2.1-0.8-3.7-2.5-4.6-4.6C4,35,4.3,27.5,4.3,24s-0.3-11,1-14.1c0.8-2.1,2.5-3.7,4.6-4.6
	C13,4,20.5,4.3,24,4.3s11-0.3,14.1,1c2.1,0.8,3.7,2.5,4.6,4.6c1.3,3.2,1,10.7,1,14.1S44,35,42.7,38.1z"/>
</svg>
