<svg xmlns="http://www.w3.org/2000/svg" width="19" height="19" viewBox="0 0 19 19">
  <path id="Icon_metro-copyright" data-name="Icon metro-copyright" d="M19,16.109v1.348a1.566,1.566,0,0,1-.451,1.1,3,3,0,0,1-1.163.748,8.5,8.5,0,0,1-1.46.4,8.12,8.12,0,0,1-1.453.136,5.718,5.718,0,0,1-4.237-1.719,5.843,5.843,0,0,1-1.7-4.28,5.749,5.749,0,0,1,5.876-5.876,8.729,8.729,0,0,1,.934.056,7.981,7.981,0,0,1,1.15.223,5.9,5.9,0,0,1,1.144.421,2.464,2.464,0,0,1,.854.7,1.59,1.59,0,0,1,.346,1v1.348a.175.175,0,0,1-.2.2h-1.46a.175.175,0,0,1-.2-.2v-.866q0-.532-.81-.835a4.815,4.815,0,0,0-1.7-.3,3.758,3.758,0,0,0-2.827,1.132,4.049,4.049,0,0,0-1.095,2.938,4.357,4.357,0,0,0,1.132,3.086,3.768,3.768,0,0,0,2.888,1.218,5.241,5.241,0,0,0,1.707-.3q.866-.3.866-.816v-.866a.193.193,0,0,1,.056-.142.178.178,0,0,1,.13-.056H18.8a.2.2,0,0,1,.136.056.183.183,0,0,1,.062.142ZM14.27,5.99a7.7,7.7,0,0,0-3.074.631,7.807,7.807,0,0,0-4.212,4.212,7.8,7.8,0,0,0,0,6.148A7.807,7.807,0,0,0,11.2,21.193a7.8,7.8,0,0,0,6.148,0,7.807,7.807,0,0,0,4.212-4.212,7.8,7.8,0,0,0,0-6.148,7.807,7.807,0,0,0-4.212-4.212A7.7,7.7,0,0,0,14.27,5.99Zm9.5,7.917A9.293,9.293,0,0,1,22.5,18.676a9.457,9.457,0,0,1-3.457,3.457,9.293,9.293,0,0,1-4.769,1.274A9.293,9.293,0,0,1,9.5,22.133a9.457,9.457,0,0,1-3.457-3.457A9.293,9.293,0,0,1,4.77,13.907,9.293,9.293,0,0,1,6.044,9.138,9.457,9.457,0,0,1,9.5,5.681,9.293,9.293,0,0,1,14.27,4.407a9.293,9.293,0,0,1,4.769,1.274A9.457,9.457,0,0,1,22.5,9.138,9.293,9.293,0,0,1,23.77,13.907Z" transform="translate(-4.77 -4.407)" fill="#fff"/>
</svg>
