<?xml version="1.0" encoding="utf-8"?>
<!-- Generator: Adobe Illustrator 26.5.2, SVG Export Plug-In . SVG Version: 6.00 Build 0)  -->
<svg version="1.1" id="Calque_1" xmlns="http://www.w3.org/2000/svg" xmlns:xlink="http://www.w3.org/1999/xlink" x="0px" y="0px"
	 viewBox="0 0 27 14.3" style="enable-background:new 0 0 27 14.3;" xml:space="preserve">
<style type="text/css">
	.st0{fill:#0058B9;}
</style>
<path id="Icon_ionic-ios-return-left" class="st0" d="M0.5,7.8l4.2-4.2c0.2-0.2,0.4-0.3,0.7-0.3c0.3,0,0.5,0.1,0.7,0.3
	C6.4,4,6.4,4.7,6,5l0,0L3.1,7.9h18.4c0.9,0,1.8-0.4,2.5-1c0.7-0.7,1-1.5,1-2.5V1c0-0.5,0.4-1,1-1c0.5,0,1,0.4,1,1v3.4
	c0,3-2.5,5.5-5.5,5.5H3.1l2.8,2.8c0.2,0.2,0.3,0.4,0.3,0.7c0,0.3-0.1,0.5-0.3,0.7l0,0c-0.2,0.2-0.4,0.3-0.7,0.3
	c-0.3,0-0.5-0.1-0.7-0.3l-4.1-4C0.2,9.7,0,9.3,0,8.9C0,8.5,0.2,8.1,0.5,7.8z"/>
</svg>
